<svg width="20" height="20" viewBox="0 0 20 20" fill="none" xmlns="http://www.w3.org/2000/svg">
<path d="M17.9667 8.94917L16.8333 7.6325C16.6167 7.3825 16.4417 6.91583 16.4417 6.5825V5.16583C16.4417 4.2825 15.7167 3.5575 14.8333 3.5575H13.4167C13.0917 3.5575 12.6167 3.3825 12.3667 3.16583L11.05 2.0325C10.475 1.54083 9.53333 1.54083 8.95 2.0325L7.64167 3.17417C7.39167 3.3825 6.91667 3.5575 6.59167 3.5575H5.15C4.26667 3.5575 3.54167 4.2825 3.54167 5.16583V6.59083C3.54167 6.91583 3.36667 7.3825 3.15833 7.6325L2.03333 8.9575C1.55 9.5325 1.55 10.4658 2.03333 11.0408L3.15833 12.3658C3.36667 12.6158 3.54167 13.0825 3.54167 13.4075V14.8325C3.54167 15.7158 4.26667 16.4408 5.15 16.4408H6.59167C6.91667 16.4408 7.39167 16.6158 7.64167 16.8325L8.95833 17.9658C9.53333 18.4575 10.475 18.4575 11.0583 17.9658L12.375 16.8325C12.625 16.6158 13.0917 16.4408 13.425 16.4408H14.8417C15.725 16.4408 16.45 15.7158 16.45 14.8325V13.4158C16.45 13.0908 16.625 12.6158 16.8417 12.3658L17.975 11.0492C18.4583 10.4742 18.4583 9.52417 17.9667 8.94917ZM13.4667 8.42417L9.44167 12.4492C9.32448 12.5662 9.16563 12.6319 9 12.6319C8.83437 12.6319 8.67552 12.5662 8.55833 12.4492L6.54167 10.4325C6.42543 10.3149 6.36025 10.1562 6.36025 9.99083C6.36025 9.82547 6.42543 9.66678 6.54167 9.54917C6.78333 9.3075 7.18333 9.3075 7.425 9.54917L9 11.1242L12.5833 7.54083C12.825 7.29917 13.225 7.29917 13.4667 7.54083C13.7083 7.7825 13.7083 8.1825 13.4667 8.42417Z" fill="#4D72F4"/>
</svg>
